# xmcd
#
# Track frame offsets:
#  150
#  17595
#  34770
#  53752
#  66847
#  84462
#  109430
#  129550
#  148960
#  173717
#  192337
#  214957
#  235292
#  252697
#  272983
#  291416
#
# Disc length: 4086 seconds
#
# Revision: 0
# Processed by: cddbd v1.4PL0 Copyright (c) Steve Scherf et al.
# Submitted via: AltoMP3_Maker 3.0
#
DISCID=020ff410
DTITLE=黑鸭子演唱组 - 岁月如歌
DYEAR=1900
DGENRE=
TTITLE0=我们的田野
TTITLE1=小白船
TTITLE2=小河淌水
TTITLE3=半个月亮爬过来
TTITLE4=听妈妈讲那过去的故事
TTITLE5=远飞的大雁
TTITLE6=珊瑚颂
TTITLE7=渔家姑娘在海边
TTITLE8=飞吧鸽子
TTITLE9=让我们荡起双浆
TTITLE10=牧歌
TTITLE11=星光曲
TTITLE12=听妈妈讲那过去的故事
TTITLE13=珊瑚颂
TTITLE14=黑鸭子
TTITLE15=六月茉莉
EXTD=
EXTT0=
EXTT1=
EXTT2=
EXTT3=
EXTT4=
EXTT5=
EXTT6=
EXTT7=
EXTT8=
EXTT9=
EXTT10=
EXTT11=
EXTT12=
EXTT13=
EXTT14=
EXTT15=
PLAYORDER=
